<?xml version="1.0" standalone="no"?>
<!DOCTYPE svg PUBLIC "-//W3C//DTD SVG 20010904//EN"
 "http://www.w3.org/TR/2001/REC-SVG-20010904/DTD/svg10.dtd">
<svg version="1.0" xmlns="http://www.w3.org/2000/svg"
 width="1000.000000pt" height="1029.000000pt" viewBox="0 0 1000.000000 1029.000000"
 preserveAspectRatio="xMidYMid meet">

<g transform="translate(0.000000,1029.000000) scale(0.100000,-0.100000)"
fill="#000000" stroke="none">
<path d="M0 5145 l0 -5145 5000 0 5000 0 0 5145 0 5145 -5000 0 -5000 0 0
-5145z m4915 2894 c-23 -167 -45 -383 -45 -448 0 -69 -9 -84 -42 -76 -14 4
-28 3 -30 -2 -5 -8 6 -156 17 -225 5 -36 4 -38 -22 -38 -16 0 -38 -3 -50 -6
l-21 -6 19 -69 c10 -38 19 -73 19 -79 0 -5 -18 -10 -39 -10 l-39 0 19 -72 c10
-40 19 -75 19 -76 0 -2 -23 -1 -51 3 l-50 7 6 -38 c4 -22 13 -67 21 -102 8
-35 14 -65 14 -68 0 -2 -20 -4 -45 -4 -36 0 -45 -3 -45 -17 0 -17 33 -164 46
-207 6 -17 2 -18 -41 -13 l-48 7 7 -58 c4 -31 15 -96 25 -144 l18 -87 -45 6
-45 6 7 -39 c4 -21 22 -82 40 -135 l33 -97 -39 -12 c-22 -6 -38 -15 -36 -19 2
-5 30 -61 63 -124 32 -64 55 -120 51 -124 -4 -4 -32 -8 -62 -7 -30 0 -54 -1
-54 -3 0 -7 68 -116 106 -170 24 -34 44 -64 44 -67 0 -3 -18 -11 -40 -17 -22
-7 -40 -14 -40 -15 0 -2 17 -32 38 -66 21 -35 52 -88 69 -119 l31 -56 -44 -21
-44 -22 76 -102 c74 -99 75 -102 53 -110 -13 -5 -25 -10 -27 -12 -2 -2 12 -28
31 -57 19 -30 49 -83 67 -118 32 -61 33 -64 15 -77 -10 -8 -22 -14 -25 -14 -4
0 8 -37 26 -82 54 -138 125 -503 109 -565 l-7 -28 -34 39 c-51 59 -188 342
-258 536 -56 154 -66 175 -84 172 -18 -3 -21 4 -26 55 -13 122 -38 213 -59
213 -6 0 -19 -7 -29 -17 -17 -15 -18 -14 -18 24 0 40 -27 214 -35 221 -2 2
-14 -3 -27 -12 -32 -23 -35 -21 -41 27 -7 48 -36 121 -61 152 -16 20 -16 20
-36 -3 l-19 -23 -6 28 c-23 117 -92 303 -113 303 -5 0 -15 -12 -22 -27 l-12
-28 -18 50 c-22 65 -68 155 -79 155 -4 0 -16 -9 -27 -21 -18 -20 -18 -20 -29
28 -7 26 -15 58 -19 70 -6 18 -4 22 8 17 9 -3 13 -10 10 -15 -3 -5 0 -9 5 -9
6 0 11 -6 11 -13 0 -8 12 -20 26 -27 14 -8 30 -23 36 -33 8 -16 12 -17 20 -6
8 11 9 11 5 -1 -6 -19 18 -54 31 -46 5 3 12 -3 15 -14 3 -11 10 -20 17 -20 6
0 8 4 5 10 -3 5 -2 17 3 26 7 13 11 11 27 -12 l18 -28 9 23 c7 19 11 21 23 11
12 -10 15 -10 15 3 0 24 19 31 39 13 31 -28 41 -19 41 35 0 42 2 49 14 40 10
-9 16 -8 26 4 7 8 19 15 26 15 10 0 14 13 14 43 0 34 4 44 22 52 18 8 25 22
31 63 6 34 13 52 23 52 8 0 14 9 14 20 0 11 5 20 10 20 6 0 8 10 4 24 -3 14 0
29 8 37 19 18 38 75 38 110 0 16 5 29 10 29 6 0 10 15 10 33 0 50 11 82 22 65
5 -8 7 10 5 49 -2 34 -1 64 3 65 4 2 10 28 14 58 5 50 17 114 29 165 3 11 8
43 11 70 4 28 9 64 12 80 3 17 5 45 6 63 0 17 3 32 7 32 4 0 8 21 9 48 2 61
38 287 69 432 7 36 20 101 29 145 9 44 18 87 21 95 4 8 7 20 9 25 23 85 59
198 71 225 28 65 68 135 93 162 11 12 20 26 20 32 0 5 2 7 6 4 3 -3 -2 -57
-11 -119z m208 54 c63 -96 80 -138 142 -358 36 -128 123 -597 138 -746 2 -20
8 -42 12 -49 6 -9 4 -11 -6 -5 -11 7 -12 6 -3 -6 6 -8 12 -21 12 -29 3 -51 17
-150 25 -170 3 -8 8 -35 11 -60 9 -74 44 -211 57 -224 5 -6 9 -21 9 -34 0 -32
83 -202 109 -224 13 -11 21 -30 21 -49 0 -28 3 -31 25 -27 20 4 25 0 31 -25
12 -56 52 -79 76 -43 4 6 10 -9 14 -32 5 -31 11 -42 20 -38 8 4 21 9 29 12 8
3 15 1 15 -5 0 -6 7 -11 15 -11 8 0 15 5 15 10 0 6 7 10 15 10 9 0 15 -9 15
-22 1 -23 1 -23 16 -3 14 18 16 19 25 3 8 -15 13 -13 44 18 19 18 37 34 41 34
4 0 17 10 29 23 12 12 61 58 110 102 48 44 120 110 159 147 39 37 76 68 81 68
6 0 19 14 28 30 10 17 23 30 28 30 6 0 7 4 4 10 -3 5 0 7 8 4 7 -2 33 14 59
38 56 54 134 118 143 118 3 0 12 6 19 13 48 46 78 66 102 69 16 1 31 5 34 8 3
3 24 18 48 33 l43 28 -24 -38 c-14 -22 -39 -67 -56 -102 -31 -61 -33 -62 -51
-46 -18 17 -20 15 -50 -31 -16 -26 -30 -54 -30 -61 0 -19 -17 -16 -29 4 -13
24 -21 14 -46 -62 l-22 -64 -22 40 c-12 21 -26 39 -31 39 -14 0 -67 -88 -81
-135 -13 -45 -29 -60 -29 -27 0 9 -4 23 -9 31 -6 10 -19 -7 -44 -60 -19 -41
-38 -90 -42 -109 l-8 -35 -27 33 c-25 31 -27 31 -43 14 -24 -27 -45 -82 -53
-142 l-7 -53 -26 32 c-22 27 -29 30 -38 19 -19 -23 -50 -101 -63 -161 -7 -31
-16 -57 -19 -57 -3 0 -12 9 -19 20 -7 11 -16 20 -21 20 -12 0 -66 -106 -82
-159 l-13 -43 -22 27 -22 28 -25 -49 c-31 -62 -62 -153 -77 -227 l-11 -57 -20
22 -19 23 -19 -23 c-24 -27 -61 -123 -61 -156 0 -33 -10 -38 -38 -20 -13 8
-25 14 -26 12 -9 -11 -28 -112 -33 -179 -6 -74 -7 -78 -23 -64 -9 8 -21 15
-27 15 -19 0 -44 -82 -55 -178 -10 -85 -13 -93 -31 -90 -16 2 -24 -6 -34 -32
-116 -323 -163 -433 -253 -589 -27 -48 -58 -96 -70 -106 -18 -16 -20 -17 -26
-1 -17 44 41 376 92 521 19 55 37 108 40 117 4 12 -2 21 -20 29 l-26 12 41 76
c23 42 55 96 72 120 24 35 27 45 16 52 -8 5 -20 9 -26 9 -7 0 -13 3 -13 6 0 3
34 51 75 105 l74 100 -44 21 -44 22 36 65 c20 36 52 90 70 119 l33 53 -35 14
c-19 8 -39 15 -45 15 -5 0 15 35 46 78 31 42 66 98 79 123 l24 47 -54 -2 c-29
0 -57 2 -60 6 -10 10 9 57 67 159 26 48 48 89 48 92 0 4 -18 12 -40 18 -22 7
-38 17 -36 23 12 28 65 195 71 225 l7 34 -47 -6 c-42 -6 -46 -5 -40 10 7 19
45 237 45 259 0 10 -11 12 -47 7 -45 -6 -46 -6 -39 18 12 41 46 193 46 207 0
8 -16 12 -45 12 -49 0 -51 4 -35 60 6 19 14 61 19 94 l8 58 -49 -6 c-26 -4
-48 -3 -48 1 0 4 7 30 15 57 24 78 21 86 -26 86 -22 0 -38 4 -35 8 3 5 14 41
25 80 l20 71 -51 7 -50 7 6 36 c4 20 9 81 13 135 l6 99 -35 -7 -35 -6 -6 118
c-4 65 -18 208 -32 317 -27 212 -27 215 -21 215 3 0 24 -30 49 -67z m-2263
-1373 c8 13 44 -96 56 -167 6 -42 6 -43 -22 -43 l-28 0 31 -32 c31 -32 72
-110 73 -137 0 -10 -12 -12 -50 -9 -47 5 -63 -3 -40 -17 6 -4 20 -25 31 -48
12 -23 41 -68 66 -99 l44 -58 -35 0 c-20 0 -36 -4 -36 -9 0 -4 18 -29 40 -54
22 -25 40 -48 40 -51 0 -3 -13 -6 -29 -6 -24 0 -30 5 -36 33 -4 17 -7 35 -6
39 0 4 -7 4 -16 1 -11 -4 -14 -3 -9 5 4 7 2 12 -3 12 -6 0 -10 3 -9 8 3 10
-13 56 -21 62 -6 4 -47 105 -57 140 -11 37 -18 50 -24 50 -5 0 -11 18 -15 40
-4 22 -10 42 -15 45 -4 3 -11 52 -15 108 -6 86 -4 109 9 135 9 18 19 32 22 32
3 0 2 -6 -1 -12 -4 -7 4 -1 17 13 13 14 25 21 27 16 2 -5 7 -4 11 3z m4294
-138 c-4 -17 -11 -69 -13 -105 0 -10 -5 -15 -11 -12 -5 3 -7 0 -4 -9 3 -8 1
-23 -5 -34 -6 -11 -12 -34 -13 -51 -2 -26 -7 -32 -36 -37 -18 -4 -36 -4 -39 0
-13 13 24 93 63 133 22 24 38 43 35 44 -3 1 -16 0 -28 -1 -18 -1 -23 4 -23 21
0 13 10 58 23 101 l22 79 17 -56 c9 -30 14 -63 12 -73z m-3964 -16 c0 -11 -19
-15 -25 -6 -3 5 1 10 9 10 9 0 16 -2 16 -4z m100 -96 c0 -5 -2 -10 -4 -10 -3
0 -8 5 -11 10 -3 6 -1 10 4 10 6 0 11 -4 11 -10z m98 -72 c7 9 5 2 -5 -16 -15
-27 -19 -30 -25 -15 -3 10 -7 25 -7 33 0 12 2 12 12 -2 10 -15 12 -15 25 0z
m129 -150 c-3 -8 -6 -5 -6 6 -1 11 2 17 5 13 3 -3 4 -12 1 -19z m3553 -37 c0
-5 -6 -16 -13 -23 -19 -20 -50 -71 -39 -64 6 3 13 3 16 -2 2 -4 -9 -9 -25 -10
l-30 -2 43 54 c46 59 48 61 48 47z m-3423 -70 c9 -15 9 -23 -2 -37 -11 -15
-14 -16 -15 -4 0 8 -3 25 -6 38 -8 27 7 29 23 3z m123 -121 c14 0 17 -47 3
-66 -12 -17 -13 -16 -13 8 0 14 -2 38 -4 54 -2 16 -1 23 1 17 2 -7 8 -13 13
-13z m-678 -145 l90 -75 -50 0 c-48 0 -51 2 -57 30 -4 17 -11 30 -17 30 -6 0
-7 7 -4 16 3 8 2 12 -4 9 -6 -3 -10 1 -10 10 0 10 -5 13 -12 9 -6 -4 -8 -3 -4
4 3 6 -4 18 -16 26 -12 9 -19 16 -14 16 4 0 49 -34 98 -75z m1916 -160 c0 -82
-4 -161 -8 -175 -5 -14 -8 61 -8 175 0 114 3 189 8 175 4 -14 8 -92 8 -175z
m1867 119 c-11 -8 -19 -20 -17 -25 1 -5 -6 -9 -15 -9 -14 1 -12 6 10 25 15 14
31 25 35 25 4 0 -2 -8 -13 -16z m-3657 -186 c-7 -4 -21 -8 -30 -8 -10 0 -18
-4 -18 -9 0 -12 116 -113 157 -136 34 -20 35 -35 2 -35 -10 0 -19 -4 -19 -9 0
-5 43 -47 96 -92 l95 -83 -37 -11 -38 -10 71 -62 c40 -34 86 -72 102 -84 34
-25 27 -39 -21 -39 -16 0 -28 -4 -28 -9 0 -11 117 -105 184 -147 51 -32 55
-40 26 -49 -27 -8 -25 -21 3 -29 12 -3 45 -24 73 -48 27 -24 76 -61 107 -82
54 -37 56 -41 37 -51 -19 -10 -13 -16 66 -70 47 -32 113 -73 146 -90 l60 -32
-34 -13 -33 -12 60 -29 c33 -15 88 -38 122 -49 l63 -22 -16 -30 c-8 -16 -14
-31 -12 -33 2 -1 19 -10 39 -19 39 -18 89 -60 253 -208 58 -53 127 -112 151
-129 25 -18 43 -34 41 -36 -6 -6 -106 36 -196 83 -121 62 -215 127 -316 217
-64 57 -90 75 -99 67 -9 -8 -17 -4 -28 13 -8 12 -40 43 -72 67 -43 33 -59 40
-65 30 -6 -9 -12 -5 -23 16 -9 16 -38 54 -65 84 -48 54 -49 54 -61 31 -12 -22
-13 -22 -77 39 -60 58 -66 61 -86 48 -19 -13 -25 -10 -81 46 -59 60 -60 60
-76 39 -16 -20 -17 -20 -74 33 -58 54 -87 67 -87 39 0 -9 -24 4 -66 35 -64 49
-89 60 -96 41 -1 -6 -28 6 -58 25 -61 39 -80 42 -80 15 0 -17 -6 -16 -67 15
-67 33 -83 35 -83 8 0 -19 -9 -18 -66 7 -36 17 -52 19 -65 11 -13 -9 -29 -4
-74 20 -52 28 -58 29 -74 14 -16 -14 -22 -14 -72 5 -64 25 -76 34 -31 24 21
-4 32 -3 32 5 0 8 17 9 55 5 45 -5 55 -3 55 9 0 12 5 14 25 6 14 -5 27 -6 30
0 3 5 46 8 94 7 58 -1 94 3 104 11 8 7 19 12 23 11 5 -1 35 -1 67 0 50 1 60 4
64 21 3 11 13 20 22 20 9 0 27 7 39 16 16 11 22 12 22 2 0 -7 7 -3 15 9 11 15
15 44 15 85 -1 35 3 76 7 93 9 29 -3 75 -20 75 -5 0 -5 5 -2 10 3 6 2 10 -3
10 -5 0 -9 14 -10 32 0 17 -4 34 -9 37 -13 10 -38 69 -49 114 -1 4 -3 9 -4 12
-1 3 -3 10 -4 16 0 6 -14 21 -29 33 -15 12 -29 33 -31 47 -3 31 -15 59 -35 83
-9 11 12 0 47 -24 44 -30 59 -46 50 -52z m3463 -161 c-6 -8 -8 -16 -5 -20 3
-3 -4 -3 -16 0 l-22 6 23 13 c31 17 34 17 20 1z m-536 -74 c-10 -16 -52 -77
-93 -138 -185 -272 -347 -486 -245 -325 54 86 236 347 300 433 46 59 68 77 38
30z m487 -35 c-5 -7 -9 -35 -7 -63 1 -27 0 -44 -2 -37 -11 30 -19 7 -17 -45 1
-35 10 -74 23 -98 11 -22 20 -35 21 -30 1 20 20 -20 20 -42 0 -13 3 -22 8 -21
6 1 74 -28 148 -64 12 -6 44 -8 70 -5 33 3 54 0 64 -8 12 -11 37 -11 135 -1
66 7 122 9 125 4 3 -4 21 -4 40 1 53 14 140 21 140 11 0 -5 14 -12 32 -15 l31
-7 -33 -14 c-25 -11 -35 -12 -41 -3 -5 9 -23 6 -68 -11 -59 -22 -62 -22 -75
-5 -12 17 -17 16 -75 -15 -51 -27 -64 -31 -71 -20 -7 12 -18 10 -62 -8 -63
-26 -68 -27 -68 -8 0 27 -16 25 -83 -8 -57 -29 -67 -32 -67 -17 0 10 -3 20 -6
24 -6 6 -62 -24 -103 -55 -17 -13 -27 -15 -31 -7 -11 17 -46 2 -105 -46 -40
-33 -55 -40 -59 -29 -9 23 -22 17 -84 -41 l-60 -55 -15 23 -15 22 -60 -61
c-57 -58 -62 -61 -82 -47 -19 13 -24 12 -58 -18 -20 -18 -49 -47 -63 -65 l-26
-33 -12 26 -12 26 -26 -24 c-14 -13 -45 -50 -69 -81 -23 -32 -44 -52 -46 -46
-6 17 -44 -9 -111 -73 -31 -30 -53 -45 -58 -38 -7 12 -40 -14 -144 -111 -71
-67 -268 -186 -379 -230 -43 -17 -80 -29 -82 -27 -2 2 19 21 47 42 28 21 110
93 183 158 125 113 205 177 223 177 4 0 14 4 21 9 12 7 11 14 -2 39 l-16 30
63 22 c34 11 89 34 122 49 l60 29 -34 12 -34 13 39 19 c21 11 88 52 147 91
101 66 107 71 87 82 -21 11 -18 15 59 71 45 32 104 75 132 94 l50 35 -26 11
-26 10 58 39 c76 50 183 136 183 147 0 4 -12 8 -27 8 -59 0 -54 15 27 79 44
35 89 74 101 87 l22 23 -29 6 c-16 4 -33 8 -38 9 -4 1 22 27 59 59 64 55 89
71 67 45z m-2619 -210 c108 -145 134 -189 79 -130 -50 53 -181 242 -168 242 4
0 44 -51 89 -112z m-1408 -218 c-3 -5 -12 -10 -18 -10 -7 0 -6 4 3 10 19 12
23 12 15 0z m4969 -96 c-21 -19 -33 -33 -26 -29 20 10 14 -9 -8 -25 -11 -8
-20 -22 -20 -32 0 -9 -8 -22 -19 -27 -10 -6 -21 -23 -24 -40 -4 -18 -39 -62
-97 -122 -49 -51 -90 -96 -90 -99 0 -4 -17 -19 -37 -32 -21 -14 -51 -38 -67
-53 -30 -28 -192 -109 -243 -121 -15 -4 -37 -13 -48 -20 -11 -8 -27 -14 -36
-14 -9 0 -22 -6 -28 -14 -7 -8 -27 -18 -44 -22 -18 -3 -36 -10 -42 -14 -11 -8
-81 -28 -130 -36 -16 -3 -34 -10 -40 -15 -5 -5 -19 -9 -31 -9 -12 0 -27 -7
-34 -15 -7 -8 -36 -22 -66 -32 -30 -9 -54 -21 -54 -27 0 -6 -9 4 -21 23 -27
44 -20 48 103 57 99 7 117 16 83 44 -26 21 -17 27 52 35 37 4 75 10 85 14 18
7 18 8 -1 25 -20 19 -20 19 57 46 42 15 95 35 117 44 l40 17 -23 18 c-24 17
-23 18 62 30 47 7 86 17 86 21 0 4 -7 13 -15 20 -23 19 -19 25 33 49 62 30 95
58 89 75 -4 10 2 16 21 18 22 2 28 9 30 36 3 29 6 32 36 32 28 0 36 5 46 31
12 27 17 30 44 26 25 -4 40 3 74 30 41 33 210 143 220 143 3 0 -12 -16 -34
-36z m-5097 -15 c21 -12 70 -45 108 -74 58 -43 76 -51 102 -48 27 4 32 1 41
-26 10 -27 16 -31 46 -31 33 0 36 -2 36 -30 0 -26 5 -31 29 -36 21 -5 27 -11
24 -24 -3 -12 6 -24 31 -40 20 -12 33 -26 30 -32 -4 -7 -2 -8 4 -4 13 8 77
-22 68 -31 -3 -3 -12 0 -20 6 -8 7 -19 11 -23 8 -4 -3 -30 8 -58 24 -27 16
-77 42 -109 58 -33 17 -62 34 -65 39 -3 6 -35 27 -71 48 -36 20 -68 42 -72 48
-4 6 -8 7 -8 2 0 -15 -104 104 -106 122 -2 9 -11 22 -20 29 -27 20 -9 15 33
-8z m2520 -131 c-2 -13 -4 -3 -4 22 0 25 2 35 4 23 2 -13 2 -33 0 -45z m-575
-115 c36 -49 98 -135 138 -193 40 -58 89 -126 107 -152 19 -27 32 -48 30 -48
-5 0 -298 400 -332 453 -37 57 -4 23 57 -60z m1904 -182 c-5 -7 -264 -125
-496 -226 -109 -46 -116 -49 -110 -42 13 15 582 276 603 277 5 0 6 -4 3 -9z
m-3198 -22 c-12 -7 -24 -7 -35 0 -15 9 -12 10 17 10 29 0 32 -1 18 -10z m1869
-96 c-2 -21 -4 -6 -4 32 0 39 2 55 4 38 2 -18 2 -50 0 -70z m-1171 53 c32 -13
176 -79 319 -146 143 -67 299 -140 348 -162 48 -23 86 -43 84 -45 -5 -4 -619
272 -732 330 -101 52 -107 59 -19 23z m1524 -66 c-12 -16 -24 -30 -26 -30 -3
0 4 14 16 30 12 17 24 30 26 30 3 0 -4 -13 -16 -30z m-2040 -16 c0 -2 -9 0
-20 6 -11 6 -20 13 -20 16 0 2 9 0 20 -6 11 -6 20 -13 20 -16z m150 -63 c0 -5
-7 -11 -15 -15 -8 -3 -15 -1 -15 4 0 5 -8 11 -17 13 -10 3 -3 5 15 6 17 0 32
-3 32 -8z m168 -77 c21 -4 22 -6 7 -34 -8 -16 -15 -32 -15 -36 0 -4 48 -5 106
-2 l105 5 -6 -24 c-5 -23 -5 -23 96 -23 98 0 101 -1 86 -18 -10 -10 -17 -22
-17 -25 0 -4 45 -7 100 -7 98 0 100 -1 90 -20 -10 -19 -8 -20 109 -20 103 0
120 -2 115 -15 -5 -11 1 -15 22 -15 48 0 224 -29 314 -51 151 -38 151 -38 13
-70 -187 -43 -463 -139 -463 -160 0 -5 6 -9 13 -9 6 0 -38 -27 -100 -59 -136
-71 -203 -113 -203 -126 0 -5 4 -17 10 -25 7 -11 -19 -43 -108 -135 -65 -66
-130 -136 -145 -157 -24 -31 -68 -64 -52 -39 3 5 0 11 -6 13 -20 7 0 65 37
105 18 21 34 43 34 50 0 7 6 16 14 20 8 4 48 40 89 80 41 39 78 69 82 65 4 -4
6 4 5 18 -2 14 2 36 7 50 9 23 9 104 0 140 -9 34 -33 78 -69 121 -21 26 -38
51 -38 56 0 6 -11 23 -25 39 -14 16 -25 32 -25 36 0 4 -26 35 -57 69 -32 34
-70 74 -84 90 -14 16 -30 29 -36 29 -5 0 -18 9 -28 20 -10 11 -24 20 -32 20
-7 0 -13 7 -13 15 0 8 -8 15 -18 15 -10 0 -26 6 -37 13 -16 12 -10 13 41 10
32 -2 69 -6 82 -9z m2061 2 c-9 -10 -252 -116 -256 -113 -2 2 52 29 119 60
111 50 149 65 137 53z m596 -77 c39 -1 58 -4 43 -6 -14 -2 -32 -11 -38 -19 -7
-8 -19 -14 -26 -14 -8 0 -14 -4 -14 -9 0 -5 -9 -13 -21 -16 -28 -9 -51 -28
-117 -95 -96 -98 -117 -133 -129 -208 -3 -20 -12 -45 -19 -56 -16 -23 -7 -82
18 -118 11 -16 17 -28 13 -28 -3 0 6 -11 20 -24 14 -13 27 -33 28 -44 0 -12 4
-19 8 -16 4 2 10 -5 14 -16 3 -11 12 -20 18 -20 16 -1 56 -44 94 -100 28 -41
29 -48 17 -65 -14 -18 -20 -14 -116 83 -81 80 -100 104 -90 114 7 7 12 17 12
23 0 13 -120 86 -232 141 -57 28 -75 41 -67 50 19 23 -271 124 -480 168 l-106
23 67 21 c82 26 248 58 346 68 68 6 88 16 60 27 -7 3 43 6 111 6 118 1 123 2
118 21 -5 19 0 20 94 20 54 0 99 3 99 7 0 3 -7 15 -17 25 -15 17 -12 18 86 18
l101 0 -6 27 c-6 24 -5 26 17 20 13 -4 56 -7 94 -8z m-1456 -283 c-2 -2 -47
-20 -99 -41 -93 -37 -282 -129 -410 -200 -49 -28 -58 -30 -36 -12 45 39 181
117 278 160 122 53 287 111 267 93z m418 -31 c130 -48 278 -119 388 -188 160
-101 175 -124 21 -32 -104 61 -314 166 -423 211 -49 20 -90 38 -92 40 -10 9
13 2 106 -31z m-279 -295 c0 -141 -11 -311 -17 -265 0 6 -22 10 -48 11 -84 1
-247 12 -263 18 -8 3 -46 8 -85 11 -38 3 -92 8 -120 11 -171 19 -242 9 -350
-49 -70 -37 -130 -62 -229 -94 -61 -19 -114 -37 -118 -40 -5 -2 -8 -2 -8 0 0
18 359 214 448 245 31 10 33 10 42 -14 l10 -25 72 63 c40 35 87 74 105 86 l32
23 7 -36 c3 -19 8 -35 11 -35 3 0 49 42 103 93 106 100 214 180 325 239 l70
37 7 -52 c3 -29 6 -131 6 -227z m306 142 c43 -32 120 -96 171 -144 51 -49 95
-88 98 -88 3 0 8 16 11 35 l7 36 42 -33 c23 -17 70 -56 104 -86 l63 -54 10 26
c7 19 14 24 27 20 34 -12 258 -122 278 -137 19 -14 17 -15 -20 -11 -22 3 -60
9 -85 14 -25 5 -74 14 -110 20 -36 6 -87 16 -115 22 -77 15 -328 19 -445 7
-58 -6 -142 -14 -187 -18 l-81 -6 -6 29 c-8 39 -8 435 0 475 l7 31 76 -41 c42
-22 112 -66 155 -97z m-3082 -3059 c23 -20 23 -57 1 -74 -15 -11 -16 -11 -5 1
27 31 11 72 -33 83 -19 4 -19 5 -1 6 11 0 28 -6 38 -16z m-69 -8 c-3 -9 -8
-14 -10 -11 -3 3 -2 9 2 15 9 16 15 13 8 -4z m-1760 -114 c22 -61 43 -108 47
-104 4 4 24 56 45 116 21 59 42 107 47 107 11 0 9 -5 -42 -149 -23 -64 -44
-107 -53 -109 -15 -3 -17 0 -67 143 -15 44 -31 88 -36 99 -5 13 -3 17 6 14 8
-2 32 -55 53 -117z m517 89 c0 -23 4 -30 20 -30 11 0 20 -4 20 -10 0 -5 -10
-10 -21 -10 -20 0 -21 -4 -17 -71 3 -55 8 -74 23 -85 10 -8 16 -16 13 -19 -11
-11 -40 8 -49 32 -12 33 -12 223 1 223 6 0 10 -13 10 -30z m515 16 c24 -11 33
-20 29 -30 -5 -14 -9 -14 -34 -1 -36 18 -61 19 -84 2 -28 -21 -9 -45 49 -62
87 -25 108 -74 54 -127 -29 -29 -33 -30 -90 -25 -68 6 -72 8 -64 29 5 13 12
14 40 5 50 -15 100 1 100 33 0 17 -8 28 -24 35 -68 28 -106 52 -109 68 -13 70
53 106 133 73z m105 -16 c0 -25 4 -30 25 -30 16 0 25 -6 25 -15 0 -9 -9 -15
-25 -15 -25 0 -26 -1 -23 -62 3 -54 6 -64 26 -73 12 -5 22 -13 22 -18 0 -17
-31 -18 -55 -3 -24 16 -25 20 -25 131 0 96 3 115 15 115 10 0 15 -10 15 -30z
m482 -30 l3 -61 35 30 c19 17 44 30 55 31 16 0 12 -7 -20 -40 l-39 -40 42 -60
c40 -57 41 -60 20 -60 -16 0 -32 14 -53 45 -16 25 -33 45 -37 45 -5 0 -8 -20
-8 -45 0 -38 -3 -45 -20 -45 -19 0 -20 7 -20 130 0 122 1 130 20 130 16 0 19
-8 22 -60z m193 28 c1 -20 -2 -24 -11 -17 -8 7 -14 6 -17 -3 -3 -7 -6 2 -6 20
-1 27 3 33 17 30 11 -2 17 -13 17 -30z m-44 -35 c13 -16 12 -17 -3 -4 -17 13
-22 21 -14 21 2 0 10 -8 17 -17z m-1502 -19 c12 -15 21 -40 21 -55 0 -29 0
-29 -65 -29 -72 0 -83 -12 -44 -51 17 -17 30 -20 65 -16 24 2 44 1 44 -3 0
-22 -85 -27 -111 -7 -24 18 -39 52 -39 87 0 86 83 133 129 74z m191 16 c17
-11 10 -13 -40 -10 -47 2 -75 -28 -75 -80 0 -55 26 -80 82 -80 27 0 42 -4 38
-10 -9 -15 -78 -12 -102 5 -50 35 -50 135 0 170 24 17 74 20 97 5z m271 -19
c23 -23 29 -38 29 -71 0 -53 -42 -100 -90 -100 -48 0 -90 47 -90 100 0 53 42
100 90 100 22 0 41 -9 61 -29z m79 13 c0 -14 2 -14 22 0 24 17 38 20 38 9 0
-5 -14 -16 -30 -25 -29 -17 -30 -19 -30 -93 0 -43 -4 -75 -10 -75 -6 0 -10 40
-10 100 0 60 4 100 10 100 6 0 10 -7 10 -16z m545 -9 c20 -19 25 -34 25 -75 0
-63 -30 -100 -82 -100 -67 0 -107 62 -87 135 18 66 97 88 144 40z m184 16 c19
-12 3 -33 -20 -26 -30 10 -56 -3 -69 -35 -23 -55 18 -111 69 -95 23 7 39 -14
20 -26 -35 -22 -100 -1 -118 38 -23 51 -7 122 33 141 26 13 67 14 85 3z m5360
-94 c8 -26 17 -47 21 -47 4 0 13 21 21 47 8 25 20 48 26 50 8 3 4 -21 -11 -64
-13 -38 -29 -68 -36 -68 -7 0 -23 30 -36 68 -15 43 -19 67 -11 64 6 -2 18 -25
26 -50z m638 38 c2 -6 -9 -11 -23 -10 -39 0 -42 -23 -5 -36 34 -12 49 -43 31
-64 -13 -16 -38 -19 -64 -9 -27 10 -18 22 17 20 38 -1 43 19 8 37 -36 18 -48
42 -31 62 14 17 61 17 67 0z m333 -20 c0 -35 16 -47 26 -20 4 8 13 15 22 15
13 0 13 -3 -2 -19 -16 -18 -16 -21 -1 -50 19 -38 8 -40 -22 -3 l-22 27 -1 -27
c0 -16 -4 -28 -10 -28 -6 0 -10 30 -10 70 0 40 4 70 10 70 6 0 10 -16 10 -35z
m580 32 c0 -4 -34 -104 -45 -136 -3 -8 -8 -11 -11 -8 -8 7 38 147 48 147 4 0
8 -2 8 -3z m100 -16 c-5 -11 -15 -23 -20 -26 -6 -4 -1 -14 12 -25 20 -15 21
-21 10 -44 -11 -26 -34 -32 -66 -20 -28 11 -17 24 14 18 22 -5 31 -2 36 11 6
16 -3 28 -31 39 -6 2 -5 9 3 17 18 19 15 29 -8 29 -11 0 -20 5 -20 10 0 6 18
10 40 10 37 0 40 -2 30 -19z m80 -41 c0 -33 4 -60 10 -60 6 0 10 -4 10 -10 0
-5 -13 -10 -30 -10 -16 0 -30 5 -30 10 0 6 5 10 10 10 6 0 10 20 10 45 0 38
-2 43 -17 38 -16 -6 -16 -4 1 15 29 34 36 27 36 -38z m118 48 c21 -21 13 -45
-25 -77 l-38 -30 43 -1 c23 0 42 -4 42 -10 0 -5 -22 -10 -50 -10 -62 0 -65 15
-14 63 42 40 39 62 -8 53 -26 -5 -29 -4 -18 9 15 18 51 20 68 3z m109 0 c14
-23 12 -106 -2 -118 -33 -27 -86 8 -70 46 4 11 7 27 6 37 -5 38 47 64 66 35z
m125 -40 c2 -29 2 -61 0 -70 -5 -22 -22 -24 -22 -3 0 10 -10 15 -30 15 -16 0
-30 3 -30 6 0 16 56 104 67 104 6 0 13 -22 15 -52z m110 35 c39 -35 8 -122
-44 -123 -10 0 -18 5 -18 10 0 6 9 10 20 10 10 0 24 9 31 21 9 18 8 20 -9 15
-38 -12 -68 44 -40 72 17 17 38 15 60 -5z m115 5 c14 -23 12 -106 -2 -118 -33
-27 -86 8 -70 46 4 11 7 27 6 37 -5 38 47 64 66 35z m125 -5 c35 -32 12 -123
-32 -123 -30 0 -50 28 -50 70 0 62 42 89 82 53z m-2092 -28 c9 -10 9 -15 1
-15 -15 0 -14 -57 2 -63 6 -2 9 -7 6 -11 -15 -17 -37 8 -41 47 -7 58 5 74 32
42z m360 0 c9 -10 9 -15 1 -15 -15 0 -14 -57 2 -63 6 -2 9 -7 6 -11 -15 -17
-37 8 -41 47 -7 58 5 74 32 42z m-532 -7 c23 -23 13 -38 -24 -38 -46 0 -41
-23 7 -30 27 -4 30 -7 16 -13 -28 -11 -44 -9 -61 9 -32 31 -14 84 29 84 12 0
26 -5 33 -12z m109 5 c14 -6 10 -9 -17 -13 -29 -4 -35 -9 -35 -30 0 -21 6 -26
35 -30 27 -4 31 -7 17 -13 -10 -4 -25 -7 -32 -7 -20 0 -45 28 -45 50 0 22 25
50 45 50 7 0 22 -3 32 -7z m177 -9 c21 -20 20 -43 -1 -66 -20 -22 -46 -23 -67
-2 -31 30 -9 84 34 84 10 0 26 -7 34 -16z m86 6 c0 -4 -7 -10 -15 -14 -9 -3
-15 -19 -15 -41 0 -19 -4 -35 -10 -35 -5 0 -10 22 -10 49 0 45 2 49 25 49 14
0 25 -4 25 -8z m274 -6 c21 -20 20 -43 -1 -66 -20 -22 -46 -23 -67 -2 -31 30
-9 84 34 84 10 0 26 -7 34 -16z m121 7 c3 -5 -9 -11 -27 -13 -28 -2 -33 -7
-33 -28 0 -21 5 -26 33 -28 36 -4 34 -22 -3 -22 -28 0 -55 24 -55 50 0 37 67
69 85 41z m250 0 c3 -5 -9 -11 -27 -13 -28 -2 -33 -7 -33 -28 0 -21 5 -26 33
-28 36 -4 34 -22 -3 -22 -28 0 -55 24 -55 50 0 37 67 69 85 41z m99 -7 c31
-30 9 -84 -34 -84 -24 0 -50 26 -50 50 0 24 26 50 50 50 10 0 26 -7 34 -16z
m113 4 c7 -5 14 -5 18 2 10 16 42 12 49 -6 10 -25 7 -84 -4 -84 -5 0 -10 18
-10 41 0 33 -3 40 -17 37 -13 -2 -19 -14 -21 -41 -4 -50 -22 -47 -22 4 0 36
-2 40 -22 37 -19 -2 -24 -10 -26 -40 -5 -55 -22 -46 -22 10 0 48 0 49 33 49
17 0 37 -4 44 -9z m-327 -78 c0 -5 -4 -10 -10 -10 -5 0 -10 5 -10 10 0 6 5 10
10 10 6 0 10 -4 10 -10z"/>
<path d="M2150 500 c0 -5 5 -10 10 -10 6 0 10 5 10 10 0 6 -4 10 -10 10 -5 0
-10 -4 -10 -10z"/>
<path d="M536 418 c-28 -39 -21 -48 39 -48 59 0 67 9 45 51 -15 27 -64 25 -84
-3z"/>
<path d="M986 424 c-50 -50 -21 -144 44 -144 48 0 80 50 66 104 -13 53 -75 75
-110 40z"/>
<path d="M1616 408 c-32 -46 -8 -118 39 -118 28 0 55 34 55 70 0 36 -27 70
-55 70 -13 0 -31 -10 -39 -22z"/>
<path d="M9172 373 c5 -26 38 -29 38 -4 0 15 -6 21 -21 21 -14 0 -19 -5 -17
-17z"/>
<path d="M9164 325 c-8 -21 10 -39 30 -32 22 9 20 24 -4 37 -16 9 -22 8 -26
-5z"/>
<path d="M9297 350 c-18 -29 -18 -30 2 -30 17 0 21 6 21 30 0 17 -1 30 -3 30
-1 0 -11 -13 -20 -30z"/>
<path d="M9404 375 c-4 -9 -2 -21 4 -27 15 -15 44 -1 40 19 -4 23 -36 29 -44
8z"/>
<path d="M9522 374 c2 -11 11 -20 22 -22 13 -3 17 1 14 14 -2 11 -11 20 -22
22 -13 3 -17 -1 -14 -14z"/>
<path d="M9514 325 c-8 -21 10 -39 30 -32 22 9 20 24 -4 37 -16 9 -22 8 -26
-5z"/>
<path d="M9634 365 c-9 -38 3 -75 26 -75 23 0 35 37 26 75 -4 16 -13 25 -26
25 -13 0 -22 -9 -26 -25z"/>
<path d="M7375 340 c-4 -6 5 -10 19 -10 14 0 26 5 26 10 0 6 -9 10 -19 10 -11
0 -23 -4 -26 -10z"/>
<path d="M7654 336 c-10 -26 4 -48 28 -44 17 2 23 10 23 28 0 18 -6 26 -23 28
-13 2 -25 -3 -28 -12z"/>
<path d="M8014 336 c-10 -26 4 -48 28 -44 17 2 23 10 23 28 0 18 -6 26 -23 28
-13 2 -25 -3 -28 -12z"/>
<path d="M8484 336 c-10 -26 4 -48 28 -44 17 2 23 10 23 28 0 18 -6 26 -23 28
-13 2 -25 -3 -28 -12z"/>
</g>
</svg>
